<svg width="30" height="30" viewBox="0 0 30 30" fill="none" xmlns="http://www.w3.org/2000/svg">
<path d="M15 30C6.71571 30 0 23.2843 0 15C0 6.71571 6.71571 0 15 0C23.2843 0 30 6.71571 30 15C30 23.2843 23.2843 30 15 30ZM15 2.81286C8.26929 2.81286 2.81286 8.26929 2.81286 15C2.81286 18.1479 4.01643 21.0071 5.975 23.17C7.74071 22.3164 7.09214 23.0271 9.40143 22.0757C11.765 21.105 12.325 20.7657 12.325 20.7657L12.3471 18.5264C12.3471 18.5264 11.4621 17.8543 11.1871 15.7471C10.6329 15.9064 10.45 15.1021 10.4171 14.59C10.3879 14.095 10.0971 12.55 10.7721 12.6893C10.6343 11.6579 10.535 10.7279 10.5836 10.235C10.7529 8.505 12.4321 6.69714 15.0179 6.565C18.06 6.69714 19.265 8.50357 19.4336 10.2336C19.4829 10.7264 19.3743 11.6579 19.2364 12.6871C19.9121 12.55 19.6186 14.0921 19.5857 14.5871C19.5557 15.0993 19.3686 15.9007 18.8164 15.7421C18.54 17.8486 17.655 18.5157 17.655 18.5157L17.6757 20.7436C17.6757 20.7436 18.235 21.0607 20.5986 22.0321C22.9079 22.9829 22.26 22.3143 24.025 23.17C25.9843 21.0079 27.1879 18.1479 27.1879 15C27.1879 8.26929 21.7307 2.81286 15 2.81286Z" fill="#2C2C2C"/>
</svg>
