<svg width="15" height="15" viewBox="0 0 15 15" fill="none" xmlns="http://www.w3.org/2000/svg">
<path d="M5.83854 8.28615H1.80487C1.32147 8.28615 0.925964 8.68166 0.925964 9.16506V13.1748C0.925964 13.6582 1.32147 14.0538 1.80487 14.0538H5.83852C6.32192 14.0538 6.71743 13.6582 6.71743 13.1748V9.16506C6.71744 8.68166 6.32194 8.28615 5.83854 8.28615ZM5.83854 13.1733C5.83806 13.1738 5.83754 13.1744 5.83697 13.1748H1.80645C1.80589 13.1744 1.80536 13.1738 1.80489 13.1733V9.16664C1.80536 9.16607 1.80589 9.16555 1.80645 9.16507H5.83696V9.16506C5.8375 9.16551 5.83807 9.16608 5.83854 9.16664V13.1733ZM13.1721 0.934555H9.13732C8.65392 0.934555 8.25842 1.33006 8.25842 1.81346V5.82325C8.25842 6.30665 8.65392 6.70216 9.13732 6.70216H13.1721C13.6555 6.70216 14.051 6.30665 14.051 5.82325V1.81346C14.051 1.33006 13.6555 0.934555 13.1721 0.934555ZM13.1721 5.82168C13.1716 5.82225 13.1711 5.82277 13.1705 5.82325H9.1389C9.13834 5.82277 9.13781 5.82225 9.13734 5.82168V1.81504C9.13781 1.81448 9.13834 1.81395 9.1389 1.81348H13.1705V1.81346C13.171 1.81392 13.1716 1.81449 13.1721 1.81504V5.82168ZM5.83962 0.934555H1.80487C1.32147 0.934555 0.925964 1.33006 0.925964 1.81346V5.82325C0.925964 6.30665 1.32147 6.70216 1.80487 6.70216H5.83961C6.32301 6.70216 6.71851 6.30665 6.71851 5.82325V1.81346C6.71853 1.33006 6.32302 0.934555 5.83962 0.934555ZM5.83962 5.82168C5.83914 5.82225 5.83862 5.82277 5.83805 5.82325H1.80645C1.80589 5.82277 1.80536 5.82225 1.80489 5.82168V1.81504C1.80536 1.81448 1.80589 1.81395 1.80645 1.81348H5.83804V1.81346C5.83858 1.81392 5.83915 1.81449 5.83962 1.81504V5.82168ZM13.1721 8.29063H9.15839C8.67499 8.29063 8.27948 8.68597 8.27948 9.16914V13.181C8.27948 13.6642 8.67499 14.0596 9.15839 14.0596H11.7951C12.0368 14.0596 12.2346 13.8619 12.2346 13.6203C12.2346 13.3787 12.0368 13.181 11.7951 13.181H9.15839V9.16914H13.1721V11.8486C13.1721 12.0902 13.3698 12.2879 13.6115 12.2879C13.8532 12.2879 14.051 12.0902 14.051 11.8486V9.16914C14.051 8.68597 13.6555 8.29063 13.1721 8.29063Z" fill="#828282"/>
</svg>
