<svg width="20" height="18" viewBox="0 0 20 18" fill="none" xmlns="http://www.w3.org/2000/svg">
<path d="M12.1427 8.28573C12.1427 8.09228 12.0721 7.92487 11.9307 7.7835C11.7893 7.64213 11.6219 7.57145 11.4285 7.57145H8.57131C8.37786 7.57145 8.21045 7.64213 8.06908 7.7835C7.92771 7.92487 7.85703 8.09228 7.85703 8.28573C7.85703 8.47918 7.92771 8.6466 8.06908 8.78796C8.21045 8.92933 8.37786 9.00002 8.57131 9.00002H11.4285C11.6219 9.00002 11.7893 8.92933 11.9307 8.78796C12.0721 8.6466 12.1427 8.47918 12.1427 8.28573ZM18.5713 6.14287V16.8572C18.5713 17.0506 18.5006 17.218 18.3593 17.3594C18.2179 17.5008 18.0505 17.5714 17.857 17.5714H2.14274C1.94929 17.5714 1.78188 17.5008 1.64051 17.3594C1.49914 17.218 1.42846 17.0506 1.42846 16.8572V6.14287C1.42846 5.94942 1.49914 5.78201 1.64051 5.64064C1.78188 5.49927 1.94929 5.42859 2.14274 5.42859H17.857C18.0505 5.42859 18.2179 5.49927 18.3593 5.64064C18.5006 5.78201 18.5713 5.94942 18.5713 6.14287ZM19.2856 1.14287V4.00002C19.2856 4.19347 19.2149 4.36088 19.0735 4.50225C18.9322 4.64362 18.7648 4.7143 18.5713 4.7143H1.42846C1.23501 4.7143 1.06759 4.64362 0.926226 4.50225C0.784857 4.36088 0.714172 4.19347 0.714172 4.00002V1.14287C0.714172 0.949422 0.784857 0.782011 0.926226 0.640642C1.06759 0.499273 1.23501 0.428589 1.42846 0.428589H18.5713C18.7648 0.428589 18.9322 0.499273 19.0735 0.640642C19.2149 0.782011 19.2856 0.949422 19.2856 1.14287Z" fill="#BDBDBD"/>
</svg>
