<svg width="20" height="13" viewBox="0 0 20 13" fill="none" xmlns="http://www.w3.org/2000/svg">
<path d="M7.73087 8.99981H16.9232C17.1924 8.99981 17.4616 8.8075 17.5001 8.53827L19.1924 2.6152C19.3078 2.19212 19.0001 1.84597 18.6155 1.84597H4.42318L4.19241 0.961351C4.07703 0.538274 3.69241 0.269043 3.3078 0.269043H1.76934C1.26934 0.269043 0.807797 0.653658 0.769336 1.15366C0.730874 1.69212 1.19241 2.15366 1.69241 2.15366H2.57703L5.5001 12.0383C5.61549 12.4614 5.96164 12.7306 6.38472 12.7306H17.2309C17.7309 12.7306 18.1924 12.346 18.2309 11.846C18.2693 11.3075 17.8078 10.846 17.3078 10.846H7.76933C7.34626 10.846 7.0001 10.5767 6.88472 10.1921V10.1537C6.69241 9.57673 7.15395 8.99981 7.73087 8.99981Z" fill="#B2B2B2"/>
</svg>
