<svg width="15" height="15" viewBox="0 0 15 15" fill="none" xmlns="http://www.w3.org/2000/svg">
<path d="M7.49965 5.51109L11.6617 1.34906C12.2101 0.800151 13.1017 0.800151 13.6501 1.34906C14.199 1.89796 14.199 2.78906 13.6501 3.33796L9.48855 7.49999L13.6501 11.6616C14.199 12.2105 14.199 13.1016 13.6501 13.6505C13.1017 14.1994 12.2101 14.1994 11.6617 13.6505L7.49965 9.48843L3.33762 13.6505C2.78918 14.1994 1.89762 14.1994 1.34918 13.6505C0.800273 13.1016 0.800273 12.2105 1.34918 11.6616L5.51121 7.49999L1.34918 3.33796C0.800273 2.78906 0.800273 1.89796 1.34918 1.34906C1.89762 0.800151 2.78918 0.800151 3.33762 1.34906L7.49965 5.51109Z" fill="white"/>
</svg>
