<svg width="23" height="21" viewBox="0 0 23 21" fill="none" xmlns="http://www.w3.org/2000/svg">
<path d="M17.9552 1.1319H16.8452V0.121826H14.6252V1.1319H12.5607V0.121826H10.3408V1.1319H8.19851V0.121826H5.97857V1.1319H4.86859C3.69106 1.1319 2.56176 1.59967 1.72912 2.43231C0.896483 3.26495 0.428711 4.39425 0.428711 5.57178V16.4384C0.428711 17.6159 0.896483 18.7452 1.72912 19.5779C2.56176 20.4105 3.69106 20.8783 4.86859 20.8783H17.9552C18.5382 20.8783 19.1156 20.7634 19.6542 20.5403C20.1929 20.3172 20.6823 19.9901 21.0946 19.5779C21.5069 19.1656 21.8339 18.6761 22.0571 18.1375C22.2802 17.5988 22.395 17.0215 22.395 16.4384V5.57178C22.395 4.98873 22.2802 4.41138 22.0571 3.87271C21.8339 3.33404 21.5069 2.84459 21.0946 2.43231C20.6823 2.02003 20.1929 1.69299 19.6542 1.46987C19.1156 1.24674 18.5382 1.1319 17.9552 1.1319ZM20.1751 16.4384C20.1751 17.0272 19.9412 17.5918 19.5249 18.0081C19.1086 18.4245 18.5439 18.6583 17.9552 18.6583H4.86859C4.27983 18.6583 3.71518 18.4245 3.29886 18.0081C2.88254 17.5918 2.64865 17.0272 2.64865 16.4384V5.57178V5.44969H20.164V5.57178L20.1751 16.4384Z" fill="#828282"/>
</svg>
