<svg width="20" height="18" viewBox="0 0 20 18" fill="none" xmlns="http://www.w3.org/2000/svg">
<path d="M13.9792 3.00016L17.1111 6.13211C17.2431 6.26405 17.2431 6.47933 17.1111 6.61127L9.52778 14.1946L6.30556 14.5522C5.875 14.6009 5.51042 14.2363 5.55903 13.8057L5.91667 10.5835L13.5 3.00016C13.6319 2.86822 13.8472 2.86822 13.9792 3.00016ZM19.6042 2.20502L17.9097 0.510579C17.3819 -0.0171984 16.5243 -0.0171984 15.9931 0.510579L14.7639 1.73975C14.6319 1.87169 14.6319 2.08697 14.7639 2.21891L17.8958 5.35086C18.0278 5.4828 18.2431 5.4828 18.375 5.35086L19.6042 4.12169C20.1319 3.59044 20.1319 2.7328 19.6042 2.20502ZM13.3333 12.1321V15.6668H2.22222V4.55572H10.2014C10.3125 4.55572 10.4167 4.51058 10.4965 4.43419L11.8854 3.0453C12.1493 2.78141 11.9618 2.3335 11.5903 2.3335H1.66667C0.746528 2.3335 0 3.08002 0 4.00016V16.2224C0 17.1425 0.746528 17.889 1.66667 17.889H13.8889C14.809 17.889 15.5556 17.1425 15.5556 16.2224V10.7432C15.5556 10.3717 15.1076 10.1877 14.8438 10.4481L13.4549 11.837C13.3785 11.9168 13.3333 12.021 13.3333 12.1321Z" fill="#BDBDBD"/>
</svg>
