<svg width="18" height="18" viewBox="0 0 18 18" fill="none" xmlns="http://www.w3.org/2000/svg">
<path d="M16.4458 3.55995C16.8305 3.92792 17.0565 4.39042 17.1247 4.94471V15.0574C17.1024 15.6689 16.8924 16.165 16.4965 16.5441C16.1006 16.9232 15.6202 17.1183 15.0542 17.1308H3.00259C2.39185 17.1084 1.89653 16.8984 1.51782 16.5019C1.13911 16.1055 0.943018 15.6242 0.931885 15.0574V2.99061C0.95415 2.37889 1.16411 1.883 1.56001 1.50389C1.95591 1.12479 2.43657 0.92948 3.00259 0.917175H7.02466C7.30767 0.928308 7.58696 1.00546 7.86509 1.14725C8.14185 1.28885 8.36528 1.46796 8.5354 1.683L9.19712 2.44745C9.29888 2.61776 9.41431 2.75077 9.54478 2.84647C9.67505 2.94354 9.84771 2.99081 10.0624 2.99081H14.951C15.5631 3.00175 16.0608 3.19198 16.4458 3.55995ZM12.8168 10.5107C12.928 10.2223 12.8918 9.97108 12.7073 9.75897L9.55415 6.34608C9.48931 6.28104 9.41724 6.22772 9.33794 6.18866C9.25864 6.1496 9.1606 6.15546 9.04243 6.20897C8.92427 6.22206 8.82622 6.25233 8.74692 6.29843C8.66919 6.34471 8.59712 6.3994 8.53071 6.46581L5.37778 9.76034C5.25962 9.8787 5.19321 9.99979 5.18032 10.1254C5.16743 10.251 5.19321 10.3795 5.25962 10.5105C5.32583 10.642 5.41392 10.7371 5.52622 10.7963C5.63716 10.8555 5.75962 10.8857 5.89087 10.8857H7.52661V13.1543C7.5395 13.3506 7.62173 13.5252 7.7731 13.6767C7.9229 13.8283 8.09731 13.9105 8.29478 13.9234H9.7936C10.3051 13.9234 10.5618 13.6666 10.5618 13.1543V10.8859H12.0778C12.4594 10.925 12.7043 10.7994 12.8168 10.5107Z" fill="#BDBDBD"/>
</svg>
