<svg width="13" height="13" viewBox="0 0 13 13" fill="none" xmlns="http://www.w3.org/2000/svg">
<path d="M12.0844 2.41995C12.3729 2.69592 12.5424 3.0428 12.5936 3.45852V11.043C12.5769 11.5017 12.4194 11.8738 12.1225 12.1581C11.8255 12.4424 11.4652 12.5887 11.0407 12.5981H2.002C1.54395 12.5813 1.17246 12.4238 0.888428 12.1264C0.604395 11.8291 0.457324 11.4681 0.448975 11.043V1.99294C0.465674 1.53416 0.623145 1.16223 0.920068 0.877905C1.21699 0.593579 1.57749 0.447095 2.002 0.437866H5.01855C5.23081 0.446216 5.44028 0.504077 5.64888 0.610425C5.85644 0.716626 6.02402 0.850952 6.15161 1.01223L6.6479 1.58557C6.72422 1.71331 6.81079 1.81306 6.90864 1.88484C7.00635 1.95764 7.13584 1.99309 7.29683 1.99309H10.9633C11.4224 2.00129 11.7957 2.14397 12.0844 2.41995ZM9.3627 7.63303C9.44604 7.41667 9.41895 7.2283 9.28052 7.06921L6.91567 4.50955C6.86704 4.46077 6.81299 4.42078 6.75352 4.39148C6.69404 4.36218 6.62051 4.36658 6.53189 4.40671C6.44326 4.41653 6.36973 4.43923 6.31025 4.4738C6.25195 4.50852 6.1979 4.54954 6.1481 4.59934L3.7834 7.07024C3.69478 7.15901 3.64497 7.24983 3.6353 7.34402C3.62563 7.43821 3.64497 7.5346 3.69478 7.63289C3.74443 7.73147 3.8105 7.80281 3.89473 7.84719C3.97793 7.89158 4.06978 7.91428 4.16821 7.91428H5.39502V9.6157C5.40469 9.76292 5.46636 9.89387 5.57988 10.0075C5.69224 10.1212 5.82305 10.1829 5.97114 10.1926H7.09526C7.47891 10.1926 7.67139 9.99993 7.67139 9.6157V7.91443H8.8084C9.09463 7.94373 9.27832 7.84954 9.3627 7.63303Z" fill="white"/>
</svg>
