<svg width="15" height="11" viewBox="0 0 15 11" fill="none" xmlns="http://www.w3.org/2000/svg">
<path d="M14.9422 5.24042C13.5864 2.50004 10.7595 0.596191 7.49989 0.596191C4.24027 0.596191 1.41335 2.50004 0.0575796 5.24042C-0.0289588 5.4135 -0.0289588 5.61542 0.0575796 5.75965C1.41335 8.50004 4.24027 10.4039 7.49989 10.4039C10.7595 10.4039 13.5864 8.50004 14.9422 5.75965C15.0287 5.58658 15.0287 5.4135 14.9422 5.24042ZM7.49989 8.67311C5.74027 8.67311 4.32681 7.25965 4.32681 5.50004C4.32681 3.74042 5.74027 2.32696 7.49989 2.32696C9.2595 2.32696 10.673 3.74042 10.673 5.50004C10.673 7.25965 9.2595 8.67311 7.49989 8.67311ZM7.49989 3.48081C6.37489 3.48081 5.48066 4.37504 5.48066 5.50004C5.48066 6.62504 6.37489 7.51927 7.49989 7.51927C8.62489 7.51927 9.51912 6.62504 9.51912 5.50004C9.51912 4.37504 8.62489 3.48081 7.49989 3.48081Z" fill="white"/>
</svg>
