<svg width="20" height="18" viewBox="0 0 20 18" fill="none" xmlns="http://www.w3.org/2000/svg">
<path d="M0.953391 3.99978H19.0491C19.6043 3.99978 20.0302 4.42981 20.0005 4.96053L19.3522 16.4882C19.3226 17.0189 18.8825 17.449 18.369 17.449H1.63378C1.11995 17.449 0.679925 17.0189 0.649922 16.4882L0.0019478 4.96053C-0.0277094 4.42981 0.398181 3.99978 0.953391 3.99978ZM2.41452 0.55127H6.40203C6.72901 0.551245 7.05259 0.61765 7.35313 0.746455L9.24636 1.55789C9.28929 1.57631 9.33552 1.58581 9.38223 1.58582H17.588C17.6794 1.58582 17.7671 1.62215 17.8318 1.68683C17.8965 1.7515 17.9328 1.83921 17.9328 1.93067V3.31008C17.9328 3.35536 17.9239 3.40021 17.9066 3.44204C17.8892 3.48388 17.8638 3.5219 17.8318 3.55392C17.7998 3.58594 17.7618 3.61135 17.7199 3.62868C17.6781 3.64601 17.6332 3.65493 17.588 3.65493H2.41452C2.36924 3.65493 2.32439 3.64601 2.28256 3.62868C2.24072 3.61135 2.2027 3.58594 2.17068 3.55392C2.13866 3.5219 2.11325 3.48388 2.09592 3.44204C2.07859 3.40021 2.06967 3.35536 2.06967 3.31008V0.89612C2.06967 0.80466 2.10601 0.716946 2.17068 0.652274C2.23535 0.587602 2.32306 0.55127 2.41452 0.55127Z" fill="#B2B2B2"/>
</svg>
