<svg width="15" height="15" viewBox="0 0 15 15" fill="none" xmlns="http://www.w3.org/2000/svg">
<path d="M5.83854 8.28617H1.80487C1.32147 8.28617 0.925964 8.68167 0.925964 9.16507V13.1749C0.925964 13.6583 1.32147 14.0538 1.80487 14.0538H5.83852C6.32192 14.0538 6.71743 13.6583 6.71743 13.1749V9.16507C6.71744 8.68167 6.32194 8.28617 5.83854 8.28617ZM5.83854 13.1733C5.83806 13.1739 5.83754 13.1744 5.83697 13.1749H1.80645C1.80589 13.1744 1.80536 13.1739 1.80489 13.1733V9.16666C1.80536 9.16609 1.80589 9.16557 1.80645 9.16509H5.83696V9.16507C5.8375 9.16553 5.83807 9.1661 5.83854 9.16666V13.1733ZM13.1721 0.93457H9.13732C8.65392 0.93457 8.25842 1.33008 8.25842 1.81348V5.82327C8.25842 6.30667 8.65392 6.70217 9.13732 6.70217H13.1721C13.6555 6.70217 14.051 6.30667 14.051 5.82327V1.81348C14.051 1.33008 13.6555 0.93457 13.1721 0.93457ZM13.1721 5.8217C13.1716 5.82226 13.1711 5.82279 13.1705 5.82327H9.1389C9.13834 5.82279 9.13781 5.82226 9.13734 5.8217V1.81506C9.13781 1.81449 9.13834 1.81397 9.1389 1.81349H13.1705V1.81348C13.171 1.81393 13.1716 1.8145 13.1721 1.81506V5.8217ZM5.83962 0.93457H1.80487C1.32147 0.93457 0.925964 1.33008 0.925964 1.81348V5.82327C0.925964 6.30667 1.32147 6.70217 1.80487 6.70217H5.83961C6.32301 6.70217 6.71851 6.30667 6.71851 5.82327V1.81348C6.71853 1.33008 6.32302 0.93457 5.83962 0.93457ZM5.83962 5.8217C5.83914 5.82226 5.83862 5.82279 5.83805 5.82327H1.80645C1.80589 5.82279 1.80536 5.82226 1.80489 5.8217V1.81506C1.80536 1.81449 1.80589 1.81397 1.80645 1.81349H5.83804V1.81348C5.83858 1.81393 5.83915 1.8145 5.83962 1.81506V5.8217ZM13.1721 8.29065H9.15839C8.67499 8.29065 8.27948 8.68598 8.27948 9.16916V13.1811C8.27948 13.6642 8.67499 14.0596 9.15839 14.0596H11.7951C12.0368 14.0596 12.2346 13.8619 12.2346 13.6203C12.2346 13.3787 12.0368 13.181 11.7951 13.181H9.15839V9.16916H13.1721V11.8486C13.1721 12.0902 13.3698 12.2879 13.6115 12.2879C13.8532 12.2879 14.051 12.0902 14.051 11.8486V9.16916C14.051 8.68598 13.6555 8.29065 13.1721 8.29065Z" fill="#828282"/>
</svg>
