<svg width="18" height="14" viewBox="0 0 18 14" fill="none" xmlns="http://www.w3.org/2000/svg">
<path d="M16.8229 5.96153H5.33063C5.01909 5.96153 4.88063 5.58076 5.08832 5.37307L8.41139 2.04999C8.61909 1.8423 8.61909 1.53076 8.41139 1.32307L7.64986 0.561531C7.44216 0.353839 7.13063 0.353839 6.92293 0.561531L0.865242 6.65384C0.65755 6.86153 0.65755 7.17307 0.865242 7.38076L6.92293 13.4385C7.13063 13.6461 7.44216 13.6461 7.64986 13.4385L8.37678 12.7115C8.58447 12.5038 8.58447 12.1923 8.37678 11.9846L5.0537 8.66153C4.84601 8.41922 4.98447 8.03845 5.29601 8.03845H16.7883C17.0652 8.03845 17.3075 7.83076 17.3075 7.55384V6.51538C17.3075 6.23845 17.0999 5.96153 16.8229 5.96153Z" fill="#828282"/>
</svg>
